<?xml version="1.0" encoding="UTF-8" standalone="no"?>
<!-- Created with Inkscape (http://www.inkscape.org/) -->

<svg
   xmlns:dc="http://purl.org/dc/elements/1.1/"
   xmlns:cc="http://creativecommons.org/ns#"
   xmlns:rdf="http://www.w3.org/1999/02/22-rdf-syntax-ns#"
   xmlns:svg="http://www.w3.org/2000/svg"
   xmlns="http://www.w3.org/2000/svg"
   xmlns:sodipodi="http://sodipodi.sourceforge.net/DTD/sodipodi-0.dtd"
   xmlns:inkscape="http://www.inkscape.org/namespaces/inkscape"
   width="50"
   height="50"
   viewBox="0 0 13.229166 13.229167"
   version="1.1"
   id="svg8"
   inkscape:version="0.92.4 (5da689c313, 2019-01-14)"
   sodipodi:docname="add_koi_base.svg"
   inkscape:export-filename="C:\Users\Nolan\Documents\Godot Projects\koi\circle_icons\add_koi\add_koi_active.png"
   inkscape:export-xdpi="96"
   inkscape:export-ydpi="96">
  <defs
     id="defs2" />
  <sodipodi:namedview
     id="base"
     pagecolor="#ffffff"
     bordercolor="#666666"
     borderopacity="1.0"
     inkscape:pageopacity="0.0"
     inkscape:pageshadow="2"
     inkscape:zoom="15.839192"
     inkscape:cx="30.032346"
     inkscape:cy="25.29884"
     inkscape:document-units="mm"
     inkscape:current-layer="g1453"
     showgrid="false"
     units="px"
     inkscape:window-width="1920"
     inkscape:window-height="1009"
     inkscape:window-x="-8"
     inkscape:window-y="-8"
     inkscape:window-maximized="1" />
  <metadata
     id="metadata5">
    <rdf:RDF>
      <cc:Work
         rdf:about="">
        <dc:format>image/svg+xml</dc:format>
        <dc:type
           rdf:resource="http://purl.org/dc/dcmitype/StillImage" />
        <dc:title />
      </cc:Work>
    </rdf:RDF>
  </metadata>
  <g
     inkscape:label="Active"
     inkscape:groupmode="layer"
     id="layer1"
     transform="translate(0,-283.77082)"
     style="display:inline">
    <circle
       style="fill:#3f4fc3;fill-opacity:0.49802372;stroke:none;stroke-width:0.23812498;stroke-linejoin:round;stroke-miterlimit:4;stroke-dasharray:none;stroke-opacity:1"
       id="path4528"
       cx="6.6145835"
       cy="290.38541"
       r="6.6145835" />
  </g>
  <g
     transform="translate(0,-283.77082)"
     id="g1453"
     inkscape:groupmode="layer"
     inkscape:label="Normal"
     style="display:none">
    <circle
       r="6.6145835"
       cy="290.38541"
       cx="6.6145835"
       id="circle1451"
       style="fill:#818181;fill-opacity:0.49802372;stroke:none;stroke-width:0.23812498;stroke-linejoin:round;stroke-miterlimit:4;stroke-dasharray:none;stroke-opacity:1" />
  </g>
  <g
     style="display:none"
     inkscape:label="Hover"
     inkscape:groupmode="layer"
     id="g2579"
     transform="translate(0,-283.77082)">
    <circle
       style="fill:#b2b2b2;fill-opacity:0.49802372;stroke:none;stroke-width:0.23812498;stroke-linejoin:round;stroke-miterlimit:4;stroke-dasharray:none;stroke-opacity:1"
       id="circle2577"
       cx="6.6145835"
       cy="290.38541"
       r="6.6145835" />
  </g>
  <g
     inkscape:groupmode="layer"
     id="layer2"
     inkscape:label="Icon">
    <g
       style="fill:#ffffff;fill-opacity:1"
       id="g917"
       transform="matrix(0.01769309,0,0,0.01769309,1.8911883,1.9227217)"
       inkscape:export-xdpi="96"
       inkscape:export-ydpi="96">
      <g
         id="g878"
         style="fill:#ffffff;fill-opacity:1">
	<g
   id="g876"
   style="fill:#ffffff;fill-opacity:1">
		<circle
   id="circle874"
   r="7.8369999"
   cy="454.08099"
   cx="157.01601"
   style="fill:#ffffff;fill-opacity:1" />

	</g>

</g>
      <g
         id="g884"
         style="fill:#ffffff;fill-opacity:1">
	<g
   id="g882"
   style="fill:#ffffff;fill-opacity:1">
		<circle
   id="circle880"
   r="7.8369999"
   cy="62.118999"
   cx="362.819"
   style="fill:#ffffff;fill-opacity:1" />

	</g>

</g>
      <g
         id="g890"
         style="fill:#ffffff;fill-opacity:1">
	<g
   id="g888"
   style="fill:#ffffff;fill-opacity:1">
		<path
   id="path886"
   d="m 277.688,52.858 c -13.449,-10.212 -38.631,-7.364 -56.469,-3.505 2.823,-6.797 4.243,-14.551 1.115,-21.506 -4.417,-9.819 -16.061,-14.798 -34.611,-14.798 -39.021,0 -56.207,42.182 -70.015,76.074 -6.181,15.171 -12.018,29.5 -18.279,36.189 l -0.567,0.588 c -0.112,0.118 -0.21,0.242 -0.313,0.366 -7.723,7.932 -15.006,16.217 -21.761,24.807 -2.676,3.402 -2.088,8.329 1.315,11.005 3.401,2.675 8.329,2.087 11.005,-1.314 7.811,-9.931 16.361,-19.434 25.507,-28.424 -20.994,27.588 -33.072,55.652 -35.331,82.587 -0.362,4.313 2.841,8.103 7.154,8.465 0.223,0.019 0.444,0.028 0.664,0.028 4.032,0 7.457,-3.093 7.801,-7.183 2.826,-33.702 22.463,-64.612 44.606,-89.335 -1.118,1.952 -2.204,3.917 -3.264,5.892 -0.204,0.326 -0.417,0.648 -0.607,0.981 -0.217,0.38 -0.392,0.782 -0.544,1.192 -11.861,22.608 -20.008,46.664 -23.954,71.361 -1.632,10.211 -2.541,20.403 -2.771,30.546 -2.213,-2.096 -4.934,-3.624 -8.43,-4.043 -10.112,-1.227 -16.365,7.789 -21.385,15.028 -1.269,1.831 -3.164,4.563 -4.622,6.18 -1.045,-1.854 -2.26,-4.857 -3.074,-6.868 -3.155,-7.794 -7.081,-17.494 -16.721,-18.939 -1.467,-0.218 -2.849,-0.213 -4.159,-0.028 5.503,-13.963 12.507,-27.854 21.011,-41.579 2.28,-3.679 1.145,-8.51 -2.534,-10.79 -3.68,-2.28 -8.51,-1.144 -10.79,2.534 -15.468,24.964 -26.494,51.481 -32.616,78.14 -0.064,0.204 -0.135,0.404 -0.182,0.613 -5.024,22.265 -6.585,44.342 -4.71,66.029 0.014,0.156 0.027,0.311 0.041,0.467 0.083,0.945 0.172,1.886 0.27,2.828 0.048,0.478 0.097,0.955 0.149,1.432 0.058,0.537 0.122,1.074 0.185,1.611 0.096,0.83 0.195,1.659 0.303,2.487 0.003,0.024 0.006,0.047 0.009,0.071 3.39,26.219 11.837,51.598 25.267,75.849 -12.694,-4.089 -27.64,-7.625 -36.693,-5.427 -7.248,1.753 -11.046,8.437 -9.236,16.253 3.329,14.376 26.635,35.349 62.164,35.348 5.327,0 10.934,-0.482 16.784,-1.517 5.642,5.779 11.567,11.142 17.72,15.993 21.736,17.138 44.907,27.157 68.867,29.775 3.757,0.411 7.356,0.615 10.794,0.615 12.947,0 23.591,-2.909 31.732,-8.689 0.671,-0.476 1.263,-1.055 1.753,-1.716 21.443,-28.85 -6.016,-70.348 -28.086,-99.446 20.437,-39.991 5.619,-75.962 -8.851,-84.52 -6.897,-4.077 -14.409,-2.477 -18.268,3.885 -4.311,7.097 -5.696,20.039 -5.908,32.214 -33.76,-64.16 -32.86,-136.535 0.003,-198.979 0.055,-0.093 0.121,-0.18 0.172,-0.276 7.913,-13.466 38.799,-20.182 66.062,-26.11 36.307,-7.894 70.602,-15.351 71.857,-40.205 0.597,-11.925 -4.868,-18.674 -9.559,-22.236 z M 25.074,426.619 c -4.588,-3.551 -7.208,-6.93 -8.467,-9.224 9.889,0.055 29.918,6.625 43.573,12.292 2.122,2.936 4.315,5.804 6.572,8.606 -22.054,1.236 -36.104,-7.36 -41.678,-11.674 z M 167.185,319.576 c 1.8,1.887 4.22,5.391 6.212,10.81 2.485,6.762 6.571,23.344 -2.024,44.692 -2.047,-2.651 -3.88,-5.058 -5.424,-7.186 l 0.016,-0.345 -0.055,-0.563 c -1.44,-14.752 -1.814,-37.494 1.275,-47.408 z m -29.386,37.551 c 0.754,-0.182 1.444,-0.429 2.101,-0.707 3.571,6.149 7.439,12.217 11.604,18.192 0.037,0.056 0.075,0.111 0.114,0.166 0.102,0.146 0.2,0.295 0.302,0.441 2.642,3.768 6.128,8.26 10.166,13.461 1.437,1.852 2.946,3.796 4.499,5.815 0.036,0.047 0.072,0.094 0.108,0.14 19.375,25.194 45.813,62.253 31.705,83.529 -7.071,4.491 -17.392,6.032 -30.714,4.577 -28.104,-3.071 -55.95,-18.528 -79.043,-43.006 -0.482,-0.73 -1.084,-1.371 -1.775,-1.904 -5.228,-5.706 -10.196,-11.885 -14.858,-18.487 -0.213,-0.362 -0.453,-0.706 -0.724,-1.031 -2.995,-4.3 -5.867,-8.766 -8.586,-13.411 -4.672,-7.98 -8.746,-16.092 -12.24,-24.314 0.093,-0.029 0.184,-0.05 0.277,-0.081 8.369,-2.834 9.449,-12.385 10.403,-20.813 0.317,-2.794 0.863,-7.628 1.721,-9.906 2.069,1.235 5.491,4.865 7.662,7.169 6.209,6.588 13.936,14.788 23.799,11.852 9.195,-2.73 10.76,-12.782 11.903,-20.123 0.353,-2.272 0.906,-5.815 1.59,-7.592 1.969,0.936 5.403,4.056 7.573,6.028 5.967,5.42 13.394,12.165 22.413,10.005 z m -6.625,-17.101 c -1.816,-1.388 -3.874,-3.256 -5.248,-4.504 -6.161,-5.597 -13.141,-11.942 -21.961,-10.037 -10.339,2.234 -12.079,13.401 -13.231,20.789 -0.318,2.035 -0.799,5.132 -1.38,6.947 -2.067,-1.326 -5.333,-4.793 -7.427,-7.014 -6.066,-6.436 -13.614,-14.45 -23.254,-12.07 -10.716,2.646 -12.1,14.869 -13.109,23.793 -0.191,1.685 -0.457,4.035 -0.793,5.951 -0.217,-0.184 -0.451,-0.389 -0.702,-0.614 -10.326,-32.484 -11.782,-66.385 -4.331,-100.822 2.125,-2.683 3.989,-5.895 5.802,-9.022 1.631,-2.81 4.524,-7.794 6.379,-9.36 1.433,1.649 3.331,6.338 4.404,8.99 3.135,7.743 7.035,17.379 16.79,17.693 8.452,0.259 13.69,-7.282 18.315,-13.954 1.709,-2.465 4.745,-6.843 6.564,-8.128 1.159,1.346 2.768,4.77 3.781,6.925 2.072,4.407 4.354,9.248 8.103,12.573 2.966,24.628 10.099,48.745 21.298,71.864 z m 0.398,-243.385 c 0.217,-0.533 0.433,-1.062 0.652,-1.6 12.663,-31.084 27.017,-66.314 55.5,-66.314 16.524,0 19.726,4.246 20.314,5.547 2.08,4.605 -3.579,14.935 -8.897,21.424 -23.814,10.66 -46.672,24.568 -67.569,40.943 z M 271.589,74.308 c -0.65,12.874 -31.933,19.676 -59.533,25.677 -15.166,3.298 -30.572,6.65 -43.789,11.343 11.152,-15.041 24.379,-29.228 39.635,-42.255 18.34,-5.879 49.687,-11.802 60.309,-3.728 1.718,1.305 3.653,3.502 3.378,8.963 z"
   inkscape:connector-curvature="0"
   style="fill:#ffffff;fill-opacity:1" />

	</g>

</g>
      <g
         id="g896"
         style="fill:#ffffff;fill-opacity:1">
	<g
   id="g894"
   style="fill:#ffffff;fill-opacity:1">
		<path
   id="path892"
   d="M 511.552,93.277 C 507.721,76.743 477.469,51.484 432.594,59.439 426.587,53.289 420.261,47.61 413.675,42.512 c -3.423,-2.65 -8.346,-2.023 -10.994,1.4 -2.65,3.423 -2.023,8.345 1.4,10.994 6.962,5.39 13.618,11.493 19.874,18.168 0.053,0.062 0.111,0.118 0.165,0.178 9.443,10.102 17.963,21.519 25.182,33.851 4.662,7.964 8.735,16.081 12.221,24.325 -0.087,0.027 -0.171,0.041 -0.259,0.07 -8.369,2.834 -9.449,12.385 -10.403,20.813 -0.317,2.794 -0.863,7.628 -1.721,9.906 -2.069,-1.235 -5.491,-4.865 -7.662,-7.169 -6.209,-6.587 -13.934,-14.785 -23.799,-11.852 -9.195,2.73 -10.76,12.782 -11.904,20.123 -0.353,2.272 -0.906,5.815 -1.59,7.592 -1.969,-0.936 -5.403,-4.056 -7.573,-6.028 -5.967,-5.422 -13.398,-12.168 -22.413,-10.006 -0.754,0.182 -1.444,0.429 -2.101,0.707 -3.571,-6.149 -7.439,-12.217 -11.604,-18.192 -0.037,-0.056 -0.075,-0.111 -0.114,-0.166 -0.102,-0.146 -0.2,-0.295 -0.302,-0.441 -2.641,-3.768 -6.128,-8.26 -10.166,-13.461 -1.437,-1.852 -2.946,-3.796 -4.499,-5.815 -0.036,-0.047 -0.072,-0.094 -0.108,-0.14 -19.376,-25.191 -45.814,-62.251 -31.706,-83.528 7.071,-4.492 17.394,-6.03 30.714,-4.577 8.906,0.973 17.874,3.195 26.653,6.604 4.033,1.566 8.575,-0.435 10.142,-4.47 1.566,-4.034 -0.435,-8.575 -4.47,-10.142 -10.054,-3.904 -20.358,-6.452 -30.624,-7.573 -17.915,-1.959 -32.224,0.759 -42.527,8.074 -0.671,0.476 -1.263,1.055 -1.753,1.716 -21.443,28.85 6.015,70.348 28.086,99.446 -20.437,39.991 -5.619,75.963 8.851,84.521 2.553,1.509 5.19,2.241 7.696,2.241 4.262,0 8.143,-2.118 10.573,-6.126 4.311,-7.097 5.696,-20.039 5.908,-32.214 33.74,64.122 32.861,136.45 0.055,198.869 -0.047,0.076 -0.099,0.147 -0.144,0.226 -7.673,13.424 -39.175,20.354 -60.021,24.94 -4.228,0.93 -6.901,5.111 -5.971,9.337 0.806,3.66 4.047,6.154 7.647,6.154 0.558,0 1.124,-0.06 1.692,-0.185 13.702,-3.015 26.548,-6.074 37.594,-9.964 -11.146,15.022 -24.362,29.195 -39.604,42.21 -18.339,5.878 -49.686,11.8 -60.309,3.728 -1.717,-1.304 -3.652,-3.501 -3.377,-8.963 0.356,-7.079 10.436,-13.262 30.815,-18.901 4.171,-1.155 6.617,-5.472 5.463,-9.643 -1.155,-4.171 -5.47,-6.616 -9.643,-5.463 -19.177,5.307 -41.315,13.879 -42.289,33.22 -0.6,11.926 4.865,18.675 9.556,22.238 13.448,10.212 38.63,7.363 56.469,3.505 -2.823,6.797 -4.243,14.551 -1.115,21.506 4.417,9.819 16.061,14.798 34.611,14.798 39.022,0 56.205,-42.176 70.012,-76.065 6.194,-15.203 12.045,-29.562 18.345,-36.261 l 0.52,-0.541 c 0.275,-0.292 0.513,-0.602 0.735,-0.921 30.994,-32.089 54.693,-69.815 67.525,-109.444 2.234,-6.899 4.115,-13.799 5.68,-20.691 0.013,-0.05 0.032,-0.098 0.044,-0.148 0.057,-0.253 0.109,-0.506 0.165,-0.759 0.183,-0.821 0.362,-1.643 0.535,-2.464 0.154,-0.726 0.298,-1.452 0.444,-2.178 0.303,-1.507 0.591,-3.013 0.862,-4.519 0.094,-0.521 0.187,-1.043 0.277,-1.563 0.549,-3.169 1.025,-6.336 1.433,-9.498 0.07,-0.542 0.136,-1.085 0.202,-1.626 0.183,-1.511 0.349,-3.021 0.499,-4.53 0.069,-0.687 0.139,-1.374 0.201,-2.061 0.078,-0.867 0.151,-1.735 0.218,-2.601 0.069,-0.885 0.13,-1.769 0.187,-2.653 0.071,-1.084 0.134,-2.166 0.188,-3.247 0.048,-0.958 0.091,-1.916 0.126,-2.875 0.025,-0.682 0.05,-1.364 0.068,-2.045 0.039,-1.423 0.064,-2.845 0.073,-4.266 0.003,-0.555 0,-1.109 -10e-4,-1.664 -0.002,-1.171 -0.014,-2.341 -0.034,-3.51 -0.009,-0.48 -0.014,-0.96 -0.026,-1.44 -0.038,-1.509 -0.096,-3.017 -0.167,-4.522 -0.024,-0.505 -0.051,-1.008 -0.079,-1.513 -0.075,-1.382 -0.163,-2.764 -0.266,-4.143 -0.027,-0.366 -0.054,-0.732 -0.084,-1.098 -0.114,-1.413 -0.245,-2.824 -0.388,-4.234 -0.053,-0.526 -0.107,-1.05 -0.164,-1.575 -0.161,-1.474 -0.333,-2.948 -0.526,-4.418 -0.066,-0.507 -0.141,-1.013 -0.211,-1.519 -0.15,-1.088 -0.31,-2.173 -0.479,-3.259 -0.095,-0.611 -0.187,-1.224 -0.287,-1.834 -0.222,-1.347 -0.457,-2.692 -0.705,-4.034 -0.135,-0.731 -0.278,-1.461 -0.421,-2.191 -0.159,-0.808 -0.323,-1.614 -0.491,-2.42 -0.262,-1.259 -0.538,-2.517 -0.824,-3.772 -0.159,-0.697 -0.317,-1.393 -0.484,-2.089 -0.217,-0.912 -0.442,-1.822 -0.673,-2.732 -0.123,-0.488 -0.253,-0.975 -0.38,-1.462 -0.433,-1.66 -0.887,-3.315 -1.363,-4.969 -0.117,-0.406 -0.233,-0.814 -0.353,-1.22 -4.446,-15.119 -10.638,-29.923 -18.592,-44.291 10.033,3.227 21.473,6.116 30.281,6.115 2.352,0 4.518,-0.207 6.418,-0.668 7.248,-1.755 11.046,-8.44 9.235,-16.258 z m -166.738,99.147 c -1.8,-1.887 -4.22,-5.391 -6.212,-10.81 -2.485,-6.761 -6.571,-23.344 2.024,-44.692 2.046,2.651 3.879,5.058 5.424,7.186 l -0.016,0.345 0.055,0.563 c 1.439,14.752 1.813,37.494 -1.275,47.408 z m 34.958,224.544 c -12.662,31.079 -27.014,66.306 -55.497,66.306 -16.524,0 -19.726,-4.246 -20.314,-5.547 -2.082,-4.608 3.589,-14.953 8.912,-21.44 24.13,-10.801 46.879,-24.683 67.551,-40.917 -0.218,0.532 -0.433,1.061 -0.652,1.598 z m 17.657,-37.369 c 20.967,-27.57 33.029,-55.614 35.286,-82.529 0.362,-4.313 -2.841,-8.103 -7.154,-8.465 -4.318,-0.36 -8.103,2.842 -8.465,7.154 -2.826,33.704 -22.465,64.614 -44.608,89.338 1.118,-1.953 2.205,-3.918 3.267,-5.894 0.206,-0.331 0.418,-0.659 0.611,-0.998 0.217,-0.38 0.39,-0.772 0.537,-1.17 11.863,-22.608 20.012,-46.667 23.96,-71.365 1.632,-10.211 2.541,-20.403 2.771,-30.546 2.213,2.096 4.934,3.624 8.43,4.043 10.107,1.224 16.365,-7.789 21.385,-15.028 1.268,-1.831 3.164,-4.563 4.622,-6.18 1.045,1.854 2.26,4.857 3.074,6.868 3.155,7.794 7.081,17.494 16.721,18.939 0.764,0.114 1.504,0.168 2.224,0.168 0.605,0 1.194,-0.04 1.77,-0.114 -13.622,34.836 -36.022,67.754 -64.431,95.779 z M 466.435,154.07 c 0.191,-1.685 0.457,-4.035 0.793,-5.951 0.205,0.173 0.428,0.369 0.662,0.58 0.168,0.531 0.343,1.061 0.507,1.591 0.208,0.674 0.406,1.348 0.607,2.023 0.363,1.223 0.723,2.445 1.061,3.672 0.053,0.192 0.1,0.385 0.153,0.577 1.782,6.56 3.214,13.18 4.285,19.852 0,0.003 0.001,0.006 0.001,0.008 1.368,8.525 2.155,17.134 2.358,25.803 10e-4,0.033 0.002,0.067 0.003,0.1 0.038,1.634 0.051,3.272 0.047,4.91 -10e-4,0.228 -0.003,0.457 -0.004,0.684 -0.009,1.572 -0.034,3.144 -0.081,4.72 -0.006,0.191 -0.016,0.382 -0.022,0.574 -0.144,4.359 -0.446,8.732 -0.883,13.113 -0.097,0.971 -0.191,1.941 -0.303,2.913 -0.101,0.887 -0.217,1.774 -0.33,2.662 -0.149,1.165 -0.306,2.33 -0.476,3.496 -0.112,0.767 -0.227,1.534 -0.347,2.301 -0.217,1.38 -0.451,2.762 -0.698,4.145 -0.103,0.581 -0.201,1.162 -0.309,1.743 -0.371,1.987 -0.765,3.977 -1.196,5.968 -2.125,2.683 -3.989,5.895 -5.802,9.022 -1.631,2.811 -4.523,7.795 -6.378,9.36 -1.433,-1.649 -3.331,-6.338 -4.405,-8.99 -3.135,-7.743 -7.035,-17.379 -16.79,-17.693 -0.153,-0.004 -0.304,-0.007 -0.455,-0.007 -8.182,0 -13.319,7.409 -17.861,13.961 -1.709,2.465 -4.745,6.843 -6.564,8.128 -1.159,-1.346 -2.768,-4.77 -3.781,-6.925 -2.072,-4.407 -4.354,-9.248 -8.103,-12.573 -2.965,-24.628 -10.098,-48.746 -21.297,-71.864 1.817,1.388 3.876,3.256 5.25,4.504 6.161,5.598 13.144,11.943 21.961,10.037 10.339,-2.234 12.079,-13.401 13.23,-20.789 0.318,-2.035 0.799,-5.132 1.38,-6.946 2.067,1.326 5.333,4.793 7.427,7.014 6.066,6.435 13.614,14.448 23.254,12.07 10.714,-2.645 12.097,-14.868 13.106,-23.793 z M 451.826,82.314 c -2.124,-2.939 -4.322,-5.809 -6.58,-8.612 22.053,-1.238 36.102,7.361 41.677,11.675 4.588,3.551 7.208,6.93 8.468,9.224 -9.868,-0.069 -29.899,-6.631 -43.565,-12.287 z"
   inkscape:connector-curvature="0"
   style="fill:#ffffff;fill-opacity:1" />

	</g>

</g>
    </g>
  </g>
</svg>
